<?xml version="1.0" encoding="UTF-8"?>
<!DOCTYPE svg PUBLIC "-//W3C//DTD SVG 1.1//EN" "http://www.w3.org/Graphics/SVG/1.1/DTD/svg11.dtd">
<svg xmlns="http://www.w3.org/2000/svg" xml:space="preserve" width="1024px" height="1024px" shape-rendering="geometricPrecision" text-rendering="geometricPrecision" image-rendering="optimizeQuality" fill-rule="evenodd" clip-rule="evenodd" viewBox="0 0 10240 10240" xmlns:xlink="http://www.w3.org/1999/xlink">
	<title>users5 icon</title>
	<desc>users5 icon from the IconExperience.com O-Collection. Copyright by INCORS GmbH (www.incors.com).</desc>
	<path id="curve9" class="primaryIconColor" d="M9600 7115c0,405 -960,565 -1600,565 -546,0 -1325,-117 -1542,-402 166,-252 262,-554 262,-878 0,-93 -8,-184 -23,-273 106,-113 239,-211 398,-328 258,177 569,281 906,281 336,0 648,-104 906,-281 453,332 694,513 694,1316z"/>
	<path id="curve8" class="primaryIconColor" d="M8000 3200c707,0 1280,573 1280,1280 0,707 -573,1280 -1280,1280 -707,0 -1280,-573 -1280,-1280 0,-707 573,-1280 1280,-1280z"/>
	<path id="curve7" class="primaryIconColor" d="M6520 5089c-540,-64 -1080,-230 -1080,-533 0,-802 242,-985 694,-1316 179,123 385,211 607,253 -214,272 -341,615 -341,988 0,216 43,421 120,609z"/>
	<path id="curve6" class="primaryIconColor" d="M7040 640c707,0 1280,573 1280,1280 0,385 -170,730 -438,964 -315,23 -604,137 -842,316 -707,0 -1280,-573 -1280,-1280 0,-707 573,-1280 1280,-1280z"/>
	<path id="curve5" class="primaryIconColor" d="M4800 4555c0,304 -540,470 -1080,534 77,-188 120,-393 120,-609 0,-373 -128,-716 -341,-988 222,-42 428,-130 607,-253 453,332 694,513 694,1316z"/>
	<path id="curve4" class="primaryIconColor" d="M3200 640c707,0 1280,573 1280,1280 0,707 -573,1280 -1280,1280 -238,-179 -527,-293 -842,-316 -269,-235 -438,-580 -438,-964 0,-707 573,-1280 1280,-1280z"/>
	<path id="curve3" class="primaryIconColor" d="M3782 7277c-217,286 -996,402 -1542,402 -640,0 -1600,-160 -1600,-565 0,-802 242,-985 694,-1316 258,177 569,281 906,281 336,0 648,-104 906,-281 159,117 292,215 398,328 -15,89 -23,180 -23,273 0,324 96,626 262,877z"/>
	<path id="curve2" class="primaryIconColor" d="M2240 3200c707,0 1280,573 1280,1280 0,707 -573,1280 -1280,1280 -707,0 -1280,-573 -1280,-1280 0,-707 573,-1280 1280,-1280z"/>
	<path id="curve1" class="primaryIconColor" d="M6720 9035c0,405 -960,565 -1600,565 -640,0 -1600,-160 -1600,-565 0,-802 242,-985 694,-1316 258,177 569,281 906,281 336,0 648,-104 906,-281 453,332 694,513 694,1316z"/>
	<path id="curve0" class="primaryIconColor" d="M5120 5120c707,0 1280,573 1280,1280 0,707 -573,1280 -1280,1280 -707,0 -1280,-573 -1280,-1280 0,-707 573,-1280 1280,-1280z"/>
</svg>
